<svg width="407" height="292" viewBox="0 0 407 292" fill="none" xmlns="http://www.w3.org/2000/svg">
<mask id="path-1-outside-1_0_1" maskUnits="userSpaceOnUse" x="51" y="0" width="318" height="245" fill="black">
<rect fill="white" x="51" width="318" height="245"/>
<path d="M249.314 84.7699H216.075C214.797 77.6676 212.417 71.4176 208.937 66.0199C205.457 60.6222 201.196 56.0412 196.153 52.277C191.11 48.5128 185.464 45.6719 179.214 43.7543C173.035 41.8366 166.466 40.8778 159.505 40.8778C146.934 40.8778 135.677 44.0384 125.734 50.3594C115.862 56.6804 108.049 65.9489 102.297 78.1648C96.6147 90.3807 93.7738 105.295 93.7738 122.909C93.7738 140.665 96.6147 155.651 102.297 167.866C108.049 180.082 115.897 189.315 125.841 195.565C135.784 201.815 146.97 204.94 159.399 204.94C166.288 204.94 172.822 204.017 179.001 202.17C185.251 200.253 190.897 197.447 195.94 193.754C200.983 190.061 205.244 185.551 208.724 180.224C212.275 174.827 214.725 168.648 216.075 161.688L249.314 161.794C247.538 172.518 244.093 182.391 238.98 191.411C233.937 200.359 227.439 208.101 219.484 214.635C211.6 221.098 202.581 226.105 192.424 229.656C182.268 233.207 171.189 234.983 159.186 234.983C140.294 234.983 123.461 230.509 108.689 221.56C93.9158 212.54 82.2681 199.649 73.7454 182.888C65.2937 166.126 61.0678 146.134 61.0678 122.909C61.0678 99.6136 65.3292 79.6207 73.8519 62.9304C82.3746 46.169 94.0224 33.3139 108.795 24.3651C123.568 15.3452 140.365 10.8352 159.186 10.8352C170.762 10.8352 181.558 12.5043 191.572 15.8423C201.657 19.1094 210.713 23.9389 218.738 30.331C226.764 36.652 233.404 44.3935 238.66 53.5554C243.916 62.6463 247.467 73.0511 249.314 84.7699ZM271.148 232V68.3636H301.936V94.3579H303.641C306.624 85.5511 311.879 78.6264 319.408 73.5838C327.007 68.4702 335.601 65.9133 345.189 65.9133C347.178 65.9133 349.521 65.9844 352.22 66.1264C354.99 66.2685 357.156 66.446 358.719 66.6591V97.1278C357.44 96.7727 355.168 96.3821 351.901 95.956C348.634 95.4588 345.366 95.2102 342.099 95.2102C334.571 95.2102 327.859 96.8082 321.964 100.004C316.141 103.129 311.524 107.497 308.115 113.108C304.706 118.648 303.001 124.969 303.001 132.071V232H271.148Z"/>
</mask>
<path d="M249.314 84.7699H216.075C214.797 77.6676 212.417 71.4176 208.937 66.0199C205.457 60.6222 201.196 56.0412 196.153 52.277C191.11 48.5128 185.464 45.6719 179.214 43.7543C173.035 41.8366 166.466 40.8778 159.505 40.8778C146.934 40.8778 135.677 44.0384 125.734 50.3594C115.862 56.6804 108.049 65.9489 102.297 78.1648C96.6147 90.3807 93.7738 105.295 93.7738 122.909C93.7738 140.665 96.6147 155.651 102.297 167.866C108.049 180.082 115.897 189.315 125.841 195.565C135.784 201.815 146.97 204.94 159.399 204.94C166.288 204.94 172.822 204.017 179.001 202.17C185.251 200.253 190.897 197.447 195.94 193.754C200.983 190.061 205.244 185.551 208.724 180.224C212.275 174.827 214.725 168.648 216.075 161.688L249.314 161.794C247.538 172.518 244.093 182.391 238.98 191.411C233.937 200.359 227.439 208.101 219.484 214.635C211.6 221.098 202.581 226.105 192.424 229.656C182.268 233.207 171.189 234.983 159.186 234.983C140.294 234.983 123.461 230.509 108.689 221.56C93.9158 212.54 82.2681 199.649 73.7454 182.888C65.2937 166.126 61.0678 146.134 61.0678 122.909C61.0678 99.6136 65.3292 79.6207 73.8519 62.9304C82.3746 46.169 94.0224 33.3139 108.795 24.3651C123.568 15.3452 140.365 10.8352 159.186 10.8352C170.762 10.8352 181.558 12.5043 191.572 15.8423C201.657 19.1094 210.713 23.9389 218.738 30.331C226.764 36.652 233.404 44.3935 238.66 53.5554C243.916 62.6463 247.467 73.0511 249.314 84.7699ZM271.148 232V68.3636H301.936V94.3579H303.641C306.624 85.5511 311.879 78.6264 319.408 73.5838C327.007 68.4702 335.601 65.9133 345.189 65.9133C347.178 65.9133 349.521 65.9844 352.22 66.1264C354.99 66.2685 357.156 66.446 358.719 66.6591V97.1278C357.44 96.7727 355.168 96.3821 351.901 95.956C348.634 95.4588 345.366 95.2102 342.099 95.2102C334.571 95.2102 327.859 96.8082 321.964 100.004C316.141 103.129 311.524 107.497 308.115 113.108C304.706 118.648 303.001 124.969 303.001 132.071V232H271.148Z" fill="#FFE868"/>
<path d="M249.314 84.7699H216.075C214.797 77.6676 212.417 71.4176 208.937 66.0199C205.457 60.6222 201.196 56.0412 196.153 52.277C191.11 48.5128 185.464 45.6719 179.214 43.7543C173.035 41.8366 166.466 40.8778 159.505 40.8778C146.934 40.8778 135.677 44.0384 125.734 50.3594C115.862 56.6804 108.049 65.9489 102.297 78.1648C96.6147 90.3807 93.7738 105.295 93.7738 122.909C93.7738 140.665 96.6147 155.651 102.297 167.866C108.049 180.082 115.897 189.315 125.841 195.565C135.784 201.815 146.97 204.94 159.399 204.94C166.288 204.94 172.822 204.017 179.001 202.17C185.251 200.253 190.897 197.447 195.94 193.754C200.983 190.061 205.244 185.551 208.724 180.224C212.275 174.827 214.725 168.648 216.075 161.688L249.314 161.794C247.538 172.518 244.093 182.391 238.98 191.411C233.937 200.359 227.439 208.101 219.484 214.635C211.6 221.098 202.581 226.105 192.424 229.656C182.268 233.207 171.189 234.983 159.186 234.983C140.294 234.983 123.461 230.509 108.689 221.56C93.9158 212.54 82.2681 199.649 73.7454 182.888C65.2937 166.126 61.0678 146.134 61.0678 122.909C61.0678 99.6136 65.3292 79.6207 73.8519 62.9304C82.3746 46.169 94.0224 33.3139 108.795 24.3651C123.568 15.3452 140.365 10.8352 159.186 10.8352C170.762 10.8352 181.558 12.5043 191.572 15.8423C201.657 19.1094 210.713 23.9389 218.738 30.331C226.764 36.652 233.404 44.3935 238.66 53.5554C243.916 62.6463 247.467 73.0511 249.314 84.7699ZM271.148 232V68.3636H301.936V94.3579H303.641C306.624 85.5511 311.879 78.6264 319.408 73.5838C327.007 68.4702 335.601 65.9133 345.189 65.9133C347.178 65.9133 349.521 65.9844 352.22 66.1264C354.99 66.2685 357.156 66.446 358.719 66.6591V97.1278C357.44 96.7727 355.168 96.3821 351.901 95.956C348.634 95.4588 345.366 95.2102 342.099 95.2102C334.571 95.2102 327.859 96.8082 321.964 100.004C316.141 103.129 311.524 107.497 308.115 113.108C304.706 118.648 303.001 124.969 303.001 132.071V232H271.148Z" fill="url(#paint0_linear_0_1)" style="mix-blend-mode:soft-light"/>
<path d="M249.314 84.7699V94.7699H261.013L259.192 83.2133L249.314 84.7699ZM216.075 84.7699L206.233 86.5414L207.714 94.7699H216.075V84.7699ZM196.153 52.277L202.135 44.2635L202.135 44.2634L196.153 52.277ZM179.214 43.7543L176.25 53.3049L176.266 53.3097L176.281 53.3144L179.214 43.7543ZM125.734 50.3594L120.369 41.9203L120.355 41.929L120.342 41.9378L125.734 50.3594ZM102.297 78.1648L93.2495 73.9043L93.2394 73.9258L93.2293 73.9475L102.297 78.1648ZM102.297 167.866L93.2293 172.084L93.2394 172.105L93.2495 172.127L102.297 167.866ZM125.841 195.565L120.519 204.032L120.519 204.032L125.841 195.565ZM179.001 202.17L181.864 211.752L181.899 211.741L181.934 211.731L179.001 202.17ZM208.724 180.224L200.37 174.728L200.361 174.742L200.352 174.755L208.724 180.224ZM216.075 161.688L216.107 151.688L207.833 151.661L206.258 159.784L216.075 161.688ZM249.314 161.794L259.179 163.427L261.099 151.832L249.346 151.794L249.314 161.794ZM238.98 191.411L230.281 186.479L230.274 186.49L230.268 186.501L238.98 191.411ZM219.484 214.635L225.824 222.368L225.831 222.362L219.484 214.635ZM192.424 229.656L195.725 239.096L195.725 239.096L192.424 229.656ZM108.689 221.56L103.477 230.095L103.492 230.104L103.507 230.113L108.689 221.56ZM73.7454 182.888L64.8163 187.39L64.8239 187.405L64.8315 187.42L73.7454 182.888ZM73.8519 62.9304L82.758 67.4782L82.7619 67.4705L82.7658 67.4629L73.8519 62.9304ZM108.795 24.3651L113.976 32.9181L113.991 32.909L114.006 32.8999L108.795 24.3651ZM191.572 15.8423L188.41 25.3292L188.45 25.3426L188.49 25.3556L191.572 15.8423ZM218.738 30.331L212.508 38.1531L212.529 38.1701L212.551 38.1869L218.738 30.331ZM238.66 53.5554L229.986 58.5313L229.994 58.5458L230.003 58.5604L238.66 53.5554ZM249.314 84.7699V74.7699H216.075V84.7699V94.7699H249.314V84.7699ZM216.075 84.7699L225.917 82.9983C224.433 74.7577 221.62 67.237 217.342 60.6011L208.937 66.0199L200.533 71.4386C203.214 75.5982 205.16 80.5775 206.233 86.5414L216.075 84.7699ZM208.937 66.0199L217.342 60.6011C213.229 54.222 208.153 48.756 202.135 44.2635L196.153 52.277L190.171 60.2905C194.238 63.3264 197.685 67.0223 200.533 71.4386L208.937 66.0199ZM196.153 52.277L202.135 44.2634C196.137 39.786 189.452 36.4352 182.147 34.1941L179.214 43.7543L176.281 53.3144C181.477 54.9086 186.084 57.2396 190.171 60.2905L196.153 52.277ZM179.214 43.7543L182.178 34.2036C174.969 31.9664 167.394 30.8778 159.505 30.8778V40.8778V50.8778C165.537 50.8778 171.101 51.7069 176.25 53.3049L179.214 43.7543ZM159.505 40.8778V30.8778C145.167 30.8778 132.025 34.5107 120.369 41.9203L125.734 50.3594L131.099 58.7985C139.33 53.566 148.702 50.8778 159.505 50.8778V40.8778ZM125.734 50.3594L120.342 41.9378C108.655 49.4209 99.6801 60.2492 93.2495 73.9043L102.297 78.1648L111.344 82.4253C116.419 71.6485 123.069 63.9399 131.126 58.781L125.734 50.3594ZM102.297 78.1648L93.2293 73.9475C86.7747 87.8248 83.7738 104.267 83.7738 122.909H93.7738H103.774C103.774 106.323 106.455 92.9366 111.364 82.3821L102.297 78.1648ZM93.7738 122.909H83.7738C83.7738 141.679 86.7704 158.197 93.2293 172.084L102.297 167.866L111.364 163.649C106.459 153.104 103.774 139.65 103.774 122.909H93.7738ZM102.297 167.866L93.2495 172.127C99.6918 185.807 108.726 196.619 120.519 204.032L125.841 195.565L131.162 187.099C123.069 182.012 116.407 174.358 111.344 163.606L102.297 167.866ZM125.841 195.565L120.519 204.032C132.151 211.343 145.202 214.94 159.399 214.94V204.94V194.94C148.738 194.94 139.417 192.288 131.162 187.099L125.841 195.565ZM159.399 204.94V214.94C167.192 214.94 174.695 213.894 181.864 211.752L179.001 202.17L176.138 192.589C170.949 194.14 165.384 194.94 159.399 194.94V204.94ZM179.001 202.17L181.934 211.731C189.203 209.5 195.864 206.205 201.849 201.822L195.94 193.754L190.031 185.687C185.931 188.69 181.299 191.005 176.068 192.61L179.001 202.17ZM195.94 193.754L201.849 201.822C207.88 197.405 212.97 192.009 217.096 185.694L208.724 180.224L200.352 174.755C197.518 179.093 194.086 182.717 190.031 185.687L195.94 193.754ZM208.724 180.224L217.078 185.721C221.414 179.13 224.318 171.707 225.892 163.591L216.075 161.688L206.258 159.784C205.133 165.588 203.137 170.523 200.37 174.728L208.724 180.224ZM216.075 161.688L216.043 171.687L249.282 171.794L249.314 161.794L249.346 151.794L216.107 151.688L216.075 161.688ZM249.314 161.794L239.448 160.161C237.855 169.782 234.787 178.53 230.281 186.479L238.98 191.411L247.679 196.342C253.4 186.251 257.221 175.255 259.179 163.427L249.314 161.794ZM238.98 191.411L230.268 186.501C225.834 194.37 220.138 201.157 213.137 206.908L219.484 214.635L225.831 222.362C234.74 215.045 242.041 206.348 247.692 196.32L238.98 191.411ZM219.484 214.635L213.144 206.902C206.215 212.582 198.237 217.03 189.124 220.217L192.424 229.656L195.725 239.096C206.925 235.18 216.986 229.614 225.824 222.368L219.484 214.635ZM192.424 229.656L189.124 220.217C180.144 223.357 170.194 224.983 159.186 224.983V234.983V244.983C172.184 244.983 184.393 243.058 195.725 239.096L192.424 229.656ZM159.186 234.983V224.983C141.943 224.983 126.935 220.921 113.87 213.007L108.689 221.56L103.507 230.113C119.987 240.096 138.644 244.983 159.186 244.983V234.983ZM108.689 221.56L113.9 213.025C100.844 205.053 90.4175 193.613 82.6592 178.355L73.7454 182.888L64.8315 187.42C74.1187 205.685 86.9877 220.026 103.477 230.095L108.689 221.56ZM73.7454 182.888L82.6745 178.385C75.0742 163.313 71.0678 144.933 71.0678 122.909H61.0678H51.0678C51.0678 147.334 55.5131 168.94 64.8163 187.39L73.7454 182.888ZM61.0678 122.909H71.0678C71.0678 100.818 75.108 82.4594 82.758 67.4782L73.8519 62.9304L64.9459 58.3826C55.5504 76.7821 51.0678 98.4092 51.0678 122.909H61.0678ZM73.8519 62.9304L82.7658 67.4629C90.5212 52.2106 100.939 40.8158 113.976 32.9181L108.795 24.3651L103.614 15.812C87.1059 25.812 74.2281 40.1275 64.9381 58.3979L73.8519 62.9304ZM108.795 24.3651L114.006 32.8999C127.073 24.9214 142.037 20.8352 159.186 20.8352V10.8352V0.835219C138.692 0.835219 120.062 5.76897 103.584 15.8302L108.795 24.3651ZM159.186 10.8352V20.8352C169.791 20.8352 179.509 22.3622 188.41 25.3292L191.572 15.8423L194.734 6.3555C183.607 2.6463 171.734 0.835219 159.186 0.835219V10.8352ZM191.572 15.8423L188.49 25.3556C197.472 28.2651 205.453 32.5341 212.508 38.1531L218.738 30.331L224.968 22.5088C215.972 15.3437 205.843 9.95366 194.654 6.32904L191.572 15.8423ZM218.738 30.331L212.551 38.1869C219.537 43.689 225.345 50.4413 229.986 58.5313L238.66 53.5554L247.334 48.5795C241.464 38.3456 233.991 29.615 224.926 22.475L218.738 30.331ZM238.66 53.5554L230.003 58.5604C234.568 66.4577 237.756 75.666 239.435 86.3264L249.314 84.7699L259.192 83.2133C257.178 70.4363 253.263 58.8349 247.318 48.5504L238.66 53.5554ZM271.148 232H261.148V242H271.148V232ZM271.148 68.3636V58.3636H261.148V68.3636H271.148ZM301.936 68.3636H311.936V58.3636H301.936V68.3636ZM301.936 94.3579H291.936V104.358H301.936V94.3579ZM303.641 94.3579V104.358H310.812L313.112 97.566L303.641 94.3579ZM319.408 73.5838L324.973 81.8922L324.982 81.8863L324.99 81.8804L319.408 73.5838ZM352.22 66.1264L351.695 76.1126L351.708 76.1133L352.22 66.1264ZM358.719 66.6591H368.719V57.9302L360.07 56.7508L358.719 66.6591ZM358.719 97.1278L356.042 106.763L368.719 110.284V97.1278H358.719ZM351.901 95.956L350.396 105.842L350.502 105.858L350.607 105.872L351.901 95.956ZM321.964 100.004L326.693 108.816L326.712 108.806L326.731 108.795L321.964 100.004ZM308.115 113.108L316.632 118.349L316.647 118.325L316.661 118.301L308.115 113.108ZM303.001 232V242H313.001V232H303.001ZM271.148 232H281.148V68.3636H271.148H261.148V232H271.148ZM271.148 68.3636V78.3636H301.936V68.3636V58.3636H271.148V68.3636ZM301.936 68.3636H291.936V94.3579H301.936H311.936V68.3636H301.936ZM301.936 94.3579V104.358H303.641V94.3579V84.3579H301.936V94.3579ZM303.641 94.3579L313.112 97.566C315.409 90.7839 319.323 85.6765 324.973 81.8922L319.408 73.5838L313.843 65.2754C304.436 71.5763 297.838 80.3184 294.169 91.1499L303.641 94.3579ZM319.408 73.5838L324.99 81.8804C330.86 77.9307 337.491 75.9133 345.189 75.9133V65.9133V55.9133C333.71 55.9133 323.154 59.0096 313.825 65.2872L319.408 73.5838ZM345.189 65.9133V75.9133C346.953 75.9133 349.113 75.9767 351.695 76.1126L352.22 66.1264L352.746 56.1402C349.929 55.992 347.402 55.9133 345.189 55.9133V65.9133ZM352.22 66.1264L351.708 76.1133C354.373 76.25 356.216 76.4103 357.368 76.5674L358.719 66.6591L360.07 56.7508C358.097 56.4817 355.607 56.287 352.732 56.1395L352.22 66.1264ZM358.719 66.6591H348.719V97.1278H358.719H368.719V66.6591H358.719ZM358.719 97.1278L361.395 87.4927C359.358 86.9267 356.444 86.4639 353.194 86.04L351.901 95.956L350.607 105.872C353.891 106.3 355.523 106.619 356.042 106.763L358.719 97.1278ZM351.901 95.956L353.405 86.0698C349.646 85.4977 345.876 85.2102 342.099 85.2102V95.2102V105.21C344.857 105.21 347.621 105.42 350.396 105.842L351.901 95.956ZM342.099 95.2102V85.2102C333.114 85.2102 324.729 87.1304 317.198 91.2132L321.964 100.004L326.731 108.795C330.99 106.486 336.028 105.21 342.099 105.21V95.2102ZM321.964 100.004L317.236 91.1927C309.851 95.1557 303.911 100.768 299.569 107.915L308.115 113.108L316.661 118.301C319.137 114.226 322.431 111.103 326.693 108.816L321.964 100.004ZM308.115 113.108L299.598 107.867C295.131 115.126 293.001 123.294 293.001 132.071H303.001H313.001C313.001 126.643 314.281 122.169 316.632 118.349L308.115 113.108ZM303.001 132.071H293.001V232H303.001H313.001V132.071H303.001ZM303.001 232V222H271.148V232V242H303.001V232Z" fill="url(#paint1_linear_0_1)" style="mix-blend-mode:soft-light" mask="url(#path-1-outside-1_0_1)"/>
<mask id="path-3-outside-2_0_1" maskUnits="userSpaceOnUse" x="0" y="208" width="407" height="84" fill="black">
<rect fill="white" y="208" width="407" height="84"/>
<path d="M22.5958 267L7.18671 214.636H17.7208L27.9822 253.091H28.4935L38.789 214.636H49.3231L59.5503 252.92H60.0617L70.2549 214.636H80.789L65.414 267H55.0163L44.3799 229.193H43.5958L32.9594 267H22.5958ZM93.3423 267V214.636H103.195V222.955H103.74C104.695 220.136 106.376 217.92 108.785 216.307C111.217 214.67 113.967 213.852 117.035 213.852C117.672 213.852 118.422 213.875 119.285 213.92C120.172 213.966 120.865 214.023 121.365 214.091V223.841C120.956 223.727 120.229 223.602 119.183 223.466C118.138 223.307 117.092 223.227 116.047 223.227C113.638 223.227 111.49 223.739 109.604 224.761C107.74 225.761 106.263 227.159 105.172 228.955C104.081 230.727 103.535 232.75 103.535 235.023V267H93.3423ZM147.836 268.159C144.518 268.159 141.518 267.545 138.836 266.318C136.154 265.068 134.029 263.261 132.461 260.898C130.915 258.534 130.143 255.636 130.143 252.205C130.143 249.25 130.711 246.818 131.847 244.909C132.984 243 134.518 241.489 136.45 240.375C138.381 239.261 140.54 238.42 142.927 237.852C145.313 237.284 147.745 236.852 150.222 236.557C153.359 236.193 155.904 235.898 157.859 235.67C159.813 235.42 161.234 235.023 162.12 234.477C163.006 233.932 163.45 233.045 163.45 231.818V231.58C163.45 228.602 162.609 226.295 160.927 224.659C159.268 223.023 156.79 222.205 153.495 222.205C150.063 222.205 147.359 222.966 145.381 224.489C143.427 225.989 142.075 227.659 141.325 229.5L131.745 227.318C132.881 224.136 134.54 221.568 136.722 219.614C138.927 217.636 141.461 216.205 144.325 215.318C147.188 214.409 150.2 213.955 153.359 213.955C155.45 213.955 157.665 214.205 160.006 214.705C162.37 215.182 164.575 216.068 166.62 217.364C168.688 218.659 170.381 220.511 171.7 222.92C173.018 225.307 173.677 228.409 173.677 232.227V267H163.722V259.841H163.313C162.654 261.159 161.665 262.455 160.347 263.727C159.029 265 157.336 266.057 155.268 266.898C153.2 267.739 150.722 268.159 147.836 268.159ZM150.052 259.977C152.87 259.977 155.279 259.42 157.279 258.307C159.302 257.193 160.836 255.739 161.881 253.943C162.95 252.125 163.484 250.182 163.484 248.114V241.364C163.12 241.727 162.415 242.068 161.37 242.386C160.347 242.682 159.177 242.943 157.859 243.17C156.54 243.375 155.256 243.568 154.006 243.75C152.756 243.909 151.711 244.045 150.87 244.159C148.893 244.409 147.086 244.83 145.45 245.42C143.836 246.011 142.54 246.864 141.563 247.977C140.609 249.068 140.131 250.523 140.131 252.341C140.131 254.864 141.063 256.773 142.927 258.068C144.79 259.341 147.165 259.977 150.052 259.977ZM190.134 286.636V214.636H200.088V223.125H200.94C201.531 222.034 202.384 220.773 203.497 219.341C204.611 217.909 206.156 216.659 208.134 215.591C210.111 214.5 212.724 213.955 215.974 213.955C220.202 213.955 223.974 215.023 227.293 217.159C230.611 219.295 233.213 222.375 235.099 226.398C237.009 230.42 237.963 235.261 237.963 240.92C237.963 246.58 237.02 251.432 235.134 255.477C233.247 259.5 230.656 262.602 227.361 264.784C224.065 266.943 220.304 268.023 216.077 268.023C212.895 268.023 210.293 267.489 208.27 266.42C206.27 265.352 204.702 264.102 203.565 262.67C202.429 261.239 201.554 259.966 200.94 258.852H200.327V286.636H190.134ZM200.122 240.818C200.122 244.5 200.656 247.727 201.724 250.5C202.793 253.273 204.338 255.443 206.361 257.011C208.384 258.557 210.861 259.33 213.793 259.33C216.838 259.33 219.384 258.523 221.429 256.909C223.474 255.273 225.02 253.057 226.065 250.261C227.134 247.466 227.668 244.318 227.668 240.818C227.668 237.364 227.145 234.261 226.099 231.511C225.077 228.761 223.531 226.591 221.463 225C219.418 223.409 216.861 222.614 213.793 222.614C210.838 222.614 208.338 223.375 206.293 224.898C204.27 226.42 202.736 228.545 201.69 231.273C200.645 234 200.122 237.182 200.122 240.818ZM252.264 286.636V214.636H262.218V223.125H263.07C263.661 222.034 264.514 220.773 265.627 219.341C266.741 217.909 268.286 216.659 270.264 215.591C272.241 214.5 274.854 213.955 278.104 213.955C282.332 213.955 286.104 215.023 289.423 217.159C292.741 219.295 295.343 222.375 297.229 226.398C299.139 230.42 300.093 235.261 300.093 240.92C300.093 246.58 299.15 251.432 297.264 255.477C295.377 259.5 292.786 262.602 289.491 264.784C286.195 266.943 282.434 268.023 278.207 268.023C275.025 268.023 272.423 267.489 270.4 266.42C268.4 265.352 266.832 264.102 265.695 262.67C264.559 261.239 263.684 259.966 263.07 258.852H262.457V286.636H252.264ZM262.252 240.818C262.252 244.5 262.786 247.727 263.854 250.5C264.923 253.273 266.468 255.443 268.491 257.011C270.514 258.557 272.991 259.33 275.923 259.33C278.968 259.33 281.514 258.523 283.559 256.909C285.604 255.273 287.15 253.057 288.195 250.261C289.264 247.466 289.798 244.318 289.798 240.818C289.798 237.364 289.275 234.261 288.229 231.511C287.207 228.761 285.661 226.591 283.593 225C281.548 223.409 278.991 222.614 275.923 222.614C272.968 222.614 270.468 223.375 268.423 224.898C266.4 226.42 264.866 228.545 263.82 231.273C262.775 234 262.252 237.182 262.252 240.818ZM336.962 268.057C331.803 268.057 327.359 266.955 323.632 264.75C319.928 262.523 317.064 259.398 315.041 255.375C313.041 251.33 312.041 246.591 312.041 241.159C312.041 235.795 313.041 231.068 315.041 226.977C317.064 222.886 319.882 219.693 323.496 217.398C327.132 215.102 331.382 213.955 336.246 213.955C339.2 213.955 342.064 214.443 344.837 215.42C347.609 216.398 350.098 217.932 352.303 220.023C354.507 222.114 356.246 224.83 357.519 228.17C358.791 231.489 359.428 235.523 359.428 240.273V243.886H317.803V236.25H349.439C349.439 233.568 348.894 231.193 347.803 229.125C346.712 227.034 345.178 225.386 343.2 224.182C341.246 222.977 338.95 222.375 336.314 222.375C333.45 222.375 330.95 223.08 328.814 224.489C326.7 225.875 325.064 227.693 323.905 229.943C322.769 232.17 322.2 234.591 322.2 237.205V243.17C322.2 246.67 322.814 249.648 324.041 252.102C325.291 254.557 327.03 256.432 329.257 257.727C331.484 259 334.087 259.636 337.064 259.636C338.996 259.636 340.757 259.364 342.348 258.818C343.939 258.25 345.314 257.409 346.473 256.295C347.632 255.182 348.519 253.807 349.132 252.17L358.78 253.909C358.007 256.75 356.621 259.239 354.621 261.375C352.644 263.489 350.155 265.136 347.155 266.318C344.178 267.477 340.78 268.057 336.962 268.057ZM373.617 267V214.636H383.47V222.955H384.015C384.97 220.136 386.651 217.92 389.06 216.307C391.492 214.67 394.242 213.852 397.31 213.852C397.947 213.852 398.697 213.875 399.56 213.92C400.447 213.966 401.14 214.023 401.64 214.091V223.841C401.231 223.727 400.504 223.602 399.458 223.466C398.413 223.307 397.367 223.227 396.322 223.227C393.913 223.227 391.765 223.739 389.879 224.761C388.015 225.761 386.538 227.159 385.447 228.955C384.356 230.727 383.81 232.75 383.81 235.023V267H373.617Z"/>
</mask>
<path d="M22.5958 267L7.18671 214.636H17.7208L27.9822 253.091H28.4935L38.789 214.636H49.3231L59.5503 252.92H60.0617L70.2549 214.636H80.789L65.414 267H55.0163L44.3799 229.193H43.5958L32.9594 267H22.5958ZM93.3423 267V214.636H103.195V222.955H103.74C104.695 220.136 106.376 217.92 108.785 216.307C111.217 214.67 113.967 213.852 117.035 213.852C117.672 213.852 118.422 213.875 119.285 213.92C120.172 213.966 120.865 214.023 121.365 214.091V223.841C120.956 223.727 120.229 223.602 119.183 223.466C118.138 223.307 117.092 223.227 116.047 223.227C113.638 223.227 111.49 223.739 109.604 224.761C107.74 225.761 106.263 227.159 105.172 228.955C104.081 230.727 103.535 232.75 103.535 235.023V267H93.3423ZM147.836 268.159C144.518 268.159 141.518 267.545 138.836 266.318C136.154 265.068 134.029 263.261 132.461 260.898C130.915 258.534 130.143 255.636 130.143 252.205C130.143 249.25 130.711 246.818 131.847 244.909C132.984 243 134.518 241.489 136.45 240.375C138.381 239.261 140.54 238.42 142.927 237.852C145.313 237.284 147.745 236.852 150.222 236.557C153.359 236.193 155.904 235.898 157.859 235.67C159.813 235.42 161.234 235.023 162.12 234.477C163.006 233.932 163.45 233.045 163.45 231.818V231.58C163.45 228.602 162.609 226.295 160.927 224.659C159.268 223.023 156.79 222.205 153.495 222.205C150.063 222.205 147.359 222.966 145.381 224.489C143.427 225.989 142.075 227.659 141.325 229.5L131.745 227.318C132.881 224.136 134.54 221.568 136.722 219.614C138.927 217.636 141.461 216.205 144.325 215.318C147.188 214.409 150.2 213.955 153.359 213.955C155.45 213.955 157.665 214.205 160.006 214.705C162.37 215.182 164.575 216.068 166.62 217.364C168.688 218.659 170.381 220.511 171.7 222.92C173.018 225.307 173.677 228.409 173.677 232.227V267H163.722V259.841H163.313C162.654 261.159 161.665 262.455 160.347 263.727C159.029 265 157.336 266.057 155.268 266.898C153.2 267.739 150.722 268.159 147.836 268.159ZM150.052 259.977C152.87 259.977 155.279 259.42 157.279 258.307C159.302 257.193 160.836 255.739 161.881 253.943C162.95 252.125 163.484 250.182 163.484 248.114V241.364C163.12 241.727 162.415 242.068 161.37 242.386C160.347 242.682 159.177 242.943 157.859 243.17C156.54 243.375 155.256 243.568 154.006 243.75C152.756 243.909 151.711 244.045 150.87 244.159C148.893 244.409 147.086 244.83 145.45 245.42C143.836 246.011 142.54 246.864 141.563 247.977C140.609 249.068 140.131 250.523 140.131 252.341C140.131 254.864 141.063 256.773 142.927 258.068C144.79 259.341 147.165 259.977 150.052 259.977ZM190.134 286.636V214.636H200.088V223.125H200.94C201.531 222.034 202.384 220.773 203.497 219.341C204.611 217.909 206.156 216.659 208.134 215.591C210.111 214.5 212.724 213.955 215.974 213.955C220.202 213.955 223.974 215.023 227.293 217.159C230.611 219.295 233.213 222.375 235.099 226.398C237.009 230.42 237.963 235.261 237.963 240.92C237.963 246.58 237.02 251.432 235.134 255.477C233.247 259.5 230.656 262.602 227.361 264.784C224.065 266.943 220.304 268.023 216.077 268.023C212.895 268.023 210.293 267.489 208.27 266.42C206.27 265.352 204.702 264.102 203.565 262.67C202.429 261.239 201.554 259.966 200.94 258.852H200.327V286.636H190.134ZM200.122 240.818C200.122 244.5 200.656 247.727 201.724 250.5C202.793 253.273 204.338 255.443 206.361 257.011C208.384 258.557 210.861 259.33 213.793 259.33C216.838 259.33 219.384 258.523 221.429 256.909C223.474 255.273 225.02 253.057 226.065 250.261C227.134 247.466 227.668 244.318 227.668 240.818C227.668 237.364 227.145 234.261 226.099 231.511C225.077 228.761 223.531 226.591 221.463 225C219.418 223.409 216.861 222.614 213.793 222.614C210.838 222.614 208.338 223.375 206.293 224.898C204.27 226.42 202.736 228.545 201.69 231.273C200.645 234 200.122 237.182 200.122 240.818ZM252.264 286.636V214.636H262.218V223.125H263.07C263.661 222.034 264.514 220.773 265.627 219.341C266.741 217.909 268.286 216.659 270.264 215.591C272.241 214.5 274.854 213.955 278.104 213.955C282.332 213.955 286.104 215.023 289.423 217.159C292.741 219.295 295.343 222.375 297.229 226.398C299.139 230.42 300.093 235.261 300.093 240.92C300.093 246.58 299.15 251.432 297.264 255.477C295.377 259.5 292.786 262.602 289.491 264.784C286.195 266.943 282.434 268.023 278.207 268.023C275.025 268.023 272.423 267.489 270.4 266.42C268.4 265.352 266.832 264.102 265.695 262.67C264.559 261.239 263.684 259.966 263.07 258.852H262.457V286.636H252.264ZM262.252 240.818C262.252 244.5 262.786 247.727 263.854 250.5C264.923 253.273 266.468 255.443 268.491 257.011C270.514 258.557 272.991 259.33 275.923 259.33C278.968 259.33 281.514 258.523 283.559 256.909C285.604 255.273 287.15 253.057 288.195 250.261C289.264 247.466 289.798 244.318 289.798 240.818C289.798 237.364 289.275 234.261 288.229 231.511C287.207 228.761 285.661 226.591 283.593 225C281.548 223.409 278.991 222.614 275.923 222.614C272.968 222.614 270.468 223.375 268.423 224.898C266.4 226.42 264.866 228.545 263.82 231.273C262.775 234 262.252 237.182 262.252 240.818ZM336.962 268.057C331.803 268.057 327.359 266.955 323.632 264.75C319.928 262.523 317.064 259.398 315.041 255.375C313.041 251.33 312.041 246.591 312.041 241.159C312.041 235.795 313.041 231.068 315.041 226.977C317.064 222.886 319.882 219.693 323.496 217.398C327.132 215.102 331.382 213.955 336.246 213.955C339.2 213.955 342.064 214.443 344.837 215.42C347.609 216.398 350.098 217.932 352.303 220.023C354.507 222.114 356.246 224.83 357.519 228.17C358.791 231.489 359.428 235.523 359.428 240.273V243.886H317.803V236.25H349.439C349.439 233.568 348.894 231.193 347.803 229.125C346.712 227.034 345.178 225.386 343.2 224.182C341.246 222.977 338.95 222.375 336.314 222.375C333.45 222.375 330.95 223.08 328.814 224.489C326.7 225.875 325.064 227.693 323.905 229.943C322.769 232.17 322.2 234.591 322.2 237.205V243.17C322.2 246.67 322.814 249.648 324.041 252.102C325.291 254.557 327.03 256.432 329.257 257.727C331.484 259 334.087 259.636 337.064 259.636C338.996 259.636 340.757 259.364 342.348 258.818C343.939 258.25 345.314 257.409 346.473 256.295C347.632 255.182 348.519 253.807 349.132 252.17L358.78 253.909C358.007 256.75 356.621 259.239 354.621 261.375C352.644 263.489 350.155 265.136 347.155 266.318C344.178 267.477 340.78 268.057 336.962 268.057ZM373.617 267V214.636H383.47V222.955H384.015C384.97 220.136 386.651 217.92 389.06 216.307C391.492 214.67 394.242 213.852 397.31 213.852C397.947 213.852 398.697 213.875 399.56 213.92C400.447 213.966 401.14 214.023 401.64 214.091V223.841C401.231 223.727 400.504 223.602 399.458 223.466C398.413 223.307 397.367 223.227 396.322 223.227C393.913 223.227 391.765 223.739 389.879 224.761C388.015 225.761 386.538 227.159 385.447 228.955C384.356 230.727 383.81 232.75 383.81 235.023V267H373.617Z" fill="url(#paint2_linear_0_1)"/>
<path d="M22.5958 267L7.18671 214.636H17.7208L27.9822 253.091H28.4935L38.789 214.636H49.3231L59.5503 252.92H60.0617L70.2549 214.636H80.789L65.414 267H55.0163L44.3799 229.193H43.5958L32.9594 267H22.5958ZM93.3423 267V214.636H103.195V222.955H103.74C104.695 220.136 106.376 217.92 108.785 216.307C111.217 214.67 113.967 213.852 117.035 213.852C117.672 213.852 118.422 213.875 119.285 213.92C120.172 213.966 120.865 214.023 121.365 214.091V223.841C120.956 223.727 120.229 223.602 119.183 223.466C118.138 223.307 117.092 223.227 116.047 223.227C113.638 223.227 111.49 223.739 109.604 224.761C107.74 225.761 106.263 227.159 105.172 228.955C104.081 230.727 103.535 232.75 103.535 235.023V267H93.3423ZM147.836 268.159C144.518 268.159 141.518 267.545 138.836 266.318C136.154 265.068 134.029 263.261 132.461 260.898C130.915 258.534 130.143 255.636 130.143 252.205C130.143 249.25 130.711 246.818 131.847 244.909C132.984 243 134.518 241.489 136.45 240.375C138.381 239.261 140.54 238.42 142.927 237.852C145.313 237.284 147.745 236.852 150.222 236.557C153.359 236.193 155.904 235.898 157.859 235.67C159.813 235.42 161.234 235.023 162.12 234.477C163.006 233.932 163.45 233.045 163.45 231.818V231.58C163.45 228.602 162.609 226.295 160.927 224.659C159.268 223.023 156.79 222.205 153.495 222.205C150.063 222.205 147.359 222.966 145.381 224.489C143.427 225.989 142.075 227.659 141.325 229.5L131.745 227.318C132.881 224.136 134.54 221.568 136.722 219.614C138.927 217.636 141.461 216.205 144.325 215.318C147.188 214.409 150.2 213.955 153.359 213.955C155.45 213.955 157.665 214.205 160.006 214.705C162.37 215.182 164.575 216.068 166.62 217.364C168.688 218.659 170.381 220.511 171.7 222.92C173.018 225.307 173.677 228.409 173.677 232.227V267H163.722V259.841H163.313C162.654 261.159 161.665 262.455 160.347 263.727C159.029 265 157.336 266.057 155.268 266.898C153.2 267.739 150.722 268.159 147.836 268.159ZM150.052 259.977C152.87 259.977 155.279 259.42 157.279 258.307C159.302 257.193 160.836 255.739 161.881 253.943C162.95 252.125 163.484 250.182 163.484 248.114V241.364C163.12 241.727 162.415 242.068 161.37 242.386C160.347 242.682 159.177 242.943 157.859 243.17C156.54 243.375 155.256 243.568 154.006 243.75C152.756 243.909 151.711 244.045 150.87 244.159C148.893 244.409 147.086 244.83 145.45 245.42C143.836 246.011 142.54 246.864 141.563 247.977C140.609 249.068 140.131 250.523 140.131 252.341C140.131 254.864 141.063 256.773 142.927 258.068C144.79 259.341 147.165 259.977 150.052 259.977ZM190.134 286.636V214.636H200.088V223.125H200.94C201.531 222.034 202.384 220.773 203.497 219.341C204.611 217.909 206.156 216.659 208.134 215.591C210.111 214.5 212.724 213.955 215.974 213.955C220.202 213.955 223.974 215.023 227.293 217.159C230.611 219.295 233.213 222.375 235.099 226.398C237.009 230.42 237.963 235.261 237.963 240.92C237.963 246.58 237.02 251.432 235.134 255.477C233.247 259.5 230.656 262.602 227.361 264.784C224.065 266.943 220.304 268.023 216.077 268.023C212.895 268.023 210.293 267.489 208.27 266.42C206.27 265.352 204.702 264.102 203.565 262.67C202.429 261.239 201.554 259.966 200.94 258.852H200.327V286.636H190.134ZM200.122 240.818C200.122 244.5 200.656 247.727 201.724 250.5C202.793 253.273 204.338 255.443 206.361 257.011C208.384 258.557 210.861 259.33 213.793 259.33C216.838 259.33 219.384 258.523 221.429 256.909C223.474 255.273 225.02 253.057 226.065 250.261C227.134 247.466 227.668 244.318 227.668 240.818C227.668 237.364 227.145 234.261 226.099 231.511C225.077 228.761 223.531 226.591 221.463 225C219.418 223.409 216.861 222.614 213.793 222.614C210.838 222.614 208.338 223.375 206.293 224.898C204.27 226.42 202.736 228.545 201.69 231.273C200.645 234 200.122 237.182 200.122 240.818ZM252.264 286.636V214.636H262.218V223.125H263.07C263.661 222.034 264.514 220.773 265.627 219.341C266.741 217.909 268.286 216.659 270.264 215.591C272.241 214.5 274.854 213.955 278.104 213.955C282.332 213.955 286.104 215.023 289.423 217.159C292.741 219.295 295.343 222.375 297.229 226.398C299.139 230.42 300.093 235.261 300.093 240.92C300.093 246.58 299.15 251.432 297.264 255.477C295.377 259.5 292.786 262.602 289.491 264.784C286.195 266.943 282.434 268.023 278.207 268.023C275.025 268.023 272.423 267.489 270.4 266.42C268.4 265.352 266.832 264.102 265.695 262.67C264.559 261.239 263.684 259.966 263.07 258.852H262.457V286.636H252.264ZM262.252 240.818C262.252 244.5 262.786 247.727 263.854 250.5C264.923 253.273 266.468 255.443 268.491 257.011C270.514 258.557 272.991 259.33 275.923 259.33C278.968 259.33 281.514 258.523 283.559 256.909C285.604 255.273 287.15 253.057 288.195 250.261C289.264 247.466 289.798 244.318 289.798 240.818C289.798 237.364 289.275 234.261 288.229 231.511C287.207 228.761 285.661 226.591 283.593 225C281.548 223.409 278.991 222.614 275.923 222.614C272.968 222.614 270.468 223.375 268.423 224.898C266.4 226.42 264.866 228.545 263.82 231.273C262.775 234 262.252 237.182 262.252 240.818ZM336.962 268.057C331.803 268.057 327.359 266.955 323.632 264.75C319.928 262.523 317.064 259.398 315.041 255.375C313.041 251.33 312.041 246.591 312.041 241.159C312.041 235.795 313.041 231.068 315.041 226.977C317.064 222.886 319.882 219.693 323.496 217.398C327.132 215.102 331.382 213.955 336.246 213.955C339.2 213.955 342.064 214.443 344.837 215.42C347.609 216.398 350.098 217.932 352.303 220.023C354.507 222.114 356.246 224.83 357.519 228.17C358.791 231.489 359.428 235.523 359.428 240.273V243.886H317.803V236.25H349.439C349.439 233.568 348.894 231.193 347.803 229.125C346.712 227.034 345.178 225.386 343.2 224.182C341.246 222.977 338.95 222.375 336.314 222.375C333.45 222.375 330.95 223.08 328.814 224.489C326.7 225.875 325.064 227.693 323.905 229.943C322.769 232.17 322.2 234.591 322.2 237.205V243.17C322.2 246.67 322.814 249.648 324.041 252.102C325.291 254.557 327.03 256.432 329.257 257.727C331.484 259 334.087 259.636 337.064 259.636C338.996 259.636 340.757 259.364 342.348 258.818C343.939 258.25 345.314 257.409 346.473 256.295C347.632 255.182 348.519 253.807 349.132 252.17L358.78 253.909C358.007 256.75 356.621 259.239 354.621 261.375C352.644 263.489 350.155 265.136 347.155 266.318C344.178 267.477 340.78 268.057 336.962 268.057ZM373.617 267V214.636H383.47V222.955H384.015C384.97 220.136 386.651 217.92 389.06 216.307C391.492 214.67 394.242 213.852 397.31 213.852C397.947 213.852 398.697 213.875 399.56 213.92C400.447 213.966 401.14 214.023 401.64 214.091V223.841C401.231 223.727 400.504 223.602 399.458 223.466C398.413 223.307 397.367 223.227 396.322 223.227C393.913 223.227 391.765 223.739 389.879 224.761C388.015 225.761 386.538 227.159 385.447 228.955C384.356 230.727 383.81 232.75 383.81 235.023V267H373.617Z" fill="url(#paint3_linear_0_1)" style="mix-blend-mode:soft-light"/>
<path d="M22.5958 267L17.7992 268.412L18.8552 272H22.5958V267ZM7.18671 214.636V209.636H0.503357L2.39008 216.048L7.18671 214.636ZM17.7208 214.636L22.5518 213.347L21.5615 209.636H17.7208V214.636ZM27.9822 253.091L23.1512 254.38L24.1414 258.091H27.9822V253.091ZM28.4935 253.091V258.091H32.331L33.3234 254.384L28.4935 253.091ZM38.789 214.636V209.636H34.9515L33.9591 213.343L38.789 214.636ZM49.3231 214.636L54.1537 213.346L53.1627 209.636H49.3231V214.636ZM59.5503 252.92L54.7197 254.211L55.7107 257.92H59.5503V252.92ZM60.0617 252.92V257.92H63.9046L64.8934 254.207L60.0617 252.92ZM70.2549 214.636V209.636H66.412L65.4232 213.35L70.2549 214.636ZM80.789 214.636L85.5865 216.045L87.4682 209.636H80.789V214.636ZM65.414 267V272H69.157L70.2115 268.409L65.414 267ZM55.0163 267L50.2031 268.354L51.2288 272H55.0163V267ZM44.3799 229.193L49.193 227.839L48.1673 224.193H44.3799V229.193ZM43.5958 229.193V224.193H39.8084L38.7826 227.839L43.5958 229.193ZM32.9594 267V272H36.7469L37.7726 268.354L32.9594 267ZM22.5958 267L27.3924 265.588L11.9833 213.225L7.18671 214.636L2.39008 216.048L17.7992 268.412L22.5958 267ZM7.18671 214.636V219.636H17.7208V214.636V209.636H7.18671V214.636ZM17.7208 214.636L12.8898 215.925L23.1512 254.38L27.9822 253.091L32.8131 251.802L22.5518 213.347L17.7208 214.636ZM27.9822 253.091V258.091H28.4935V253.091V248.091H27.9822V253.091ZM28.4935 253.091L33.3234 254.384L43.6189 215.929L38.789 214.636L33.9591 213.343L23.6636 251.798L28.4935 253.091ZM38.789 214.636V219.636H49.3231V214.636V209.636H38.789V214.636ZM49.3231 214.636L44.4925 215.927L54.7197 254.211L59.5503 252.92L64.3809 251.63L54.1537 213.346L49.3231 214.636ZM59.5503 252.92V257.92H60.0617V252.92V247.92H59.5503V252.92ZM60.0617 252.92L64.8934 254.207L75.0866 215.923L70.2549 214.636L65.4232 213.35L55.23 251.634L60.0617 252.92ZM70.2549 214.636V219.636H80.789V214.636V209.636H70.2549V214.636ZM80.789 214.636L75.9915 213.228L60.6165 265.591L65.414 267L70.2115 268.409L85.5865 216.045L80.789 214.636ZM65.414 267V262H55.0163V267V272H65.414V267ZM55.0163 267L59.8294 265.646L49.193 227.839L44.3799 229.193L39.5667 230.547L50.2031 268.354L55.0163 267ZM44.3799 229.193V224.193H43.5958V229.193V234.193H44.3799V229.193ZM43.5958 229.193L38.7826 227.839L28.1463 265.646L32.9594 267L37.7726 268.354L48.4089 230.547L43.5958 229.193ZM32.9594 267V262H22.5958V267V272H32.9594V267ZM93.3423 267H88.3423V272H93.3423V267ZM93.3423 214.636V209.636H88.3423V214.636H93.3423ZM103.195 214.636H108.195V209.636H103.195V214.636ZM103.195 222.955H98.1945V227.955H103.195V222.955ZM103.74 222.955V227.955H107.325L108.476 224.559L103.74 222.955ZM108.785 216.307L111.568 220.461L111.577 220.455L108.785 216.307ZM119.285 213.92L119.023 218.914L119.029 218.914L119.285 213.92ZM121.365 214.091H126.365V209.726L122.041 209.137L121.365 214.091ZM121.365 223.841L120.027 228.658L126.365 230.419V223.841H121.365ZM119.183 223.466L118.431 228.409L118.484 228.417L118.536 228.424L119.183 223.466ZM109.604 224.761L111.968 229.167L111.977 229.162L111.987 229.157L109.604 224.761ZM105.172 228.955L109.43 231.575L109.438 231.563L109.445 231.551L105.172 228.955ZM103.535 267V272H108.535V267H103.535ZM93.3423 267H98.3423V214.636H93.3423H88.3423V267H93.3423ZM93.3423 214.636V219.636H103.195V214.636V209.636H93.3423V214.636ZM103.195 214.636H98.1945V222.955H103.195H108.195V214.636H103.195ZM103.195 222.955V227.955H103.74V222.955V217.955H103.195V222.955ZM103.74 222.955L108.476 224.559C109.087 222.753 110.098 221.446 111.568 220.461L108.785 216.307L106.003 212.153C102.655 214.395 100.302 217.52 99.0043 221.351L103.74 222.955ZM108.785 216.307L111.577 220.455C113.144 219.401 114.913 218.852 117.035 218.852V213.852V208.852C113.022 208.852 109.291 209.94 105.994 212.159L108.785 216.307ZM117.035 213.852V218.852C117.56 218.852 118.218 218.871 119.023 218.914L119.285 213.92L119.548 208.927C118.626 208.879 117.784 208.852 117.035 208.852V213.852ZM119.285 213.92L119.029 218.914C119.863 218.957 120.395 219.005 120.689 219.045L121.365 214.091L122.041 209.137C121.335 209.041 120.48 208.975 119.542 208.927L119.285 213.92ZM121.365 214.091H116.365V223.841H121.365H126.365V214.091H121.365ZM121.365 223.841L122.703 219.023C121.915 218.804 120.867 218.643 119.83 218.508L119.183 223.466L118.536 228.424C119.018 228.487 119.39 228.542 119.666 228.59C119.965 228.641 120.06 228.668 120.027 228.658L121.365 223.841ZM119.183 223.466L119.935 218.523C118.644 218.326 117.347 218.227 116.047 218.227V223.227V228.227C116.838 228.227 117.632 228.287 118.431 228.409L119.183 223.466ZM116.047 223.227V218.227C112.909 218.227 109.925 218.9 107.221 220.366L109.604 224.761L111.987 229.157C113.055 228.578 114.366 228.227 116.047 228.227V223.227ZM109.604 224.761L107.24 220.356C104.595 221.775 102.456 223.795 100.899 226.358L105.172 228.955L109.445 231.551C110.069 230.523 110.885 229.748 111.968 229.167L109.604 224.761ZM105.172 228.955L100.914 226.334C99.2935 228.967 98.5355 231.913 98.5355 235.023H103.535H108.535C108.535 233.587 108.868 232.488 109.43 231.575L105.172 228.955ZM103.535 235.023H98.5355V267H103.535H108.535V235.023H103.535ZM103.535 267V262H93.3423V267V272H103.535V267ZM138.836 266.318L136.724 270.85L136.739 270.857L136.755 270.865L138.836 266.318ZM132.461 260.898L128.276 263.634L128.285 263.648L128.295 263.662L132.461 260.898ZM131.847 244.909L136.144 247.467L136.144 247.467L131.847 244.909ZM136.45 240.375L138.947 244.707L138.947 244.707L136.45 240.375ZM150.222 236.557L149.646 231.59L149.638 231.591L149.63 231.592L150.222 236.557ZM157.859 235.67L158.436 240.637L158.465 240.634L158.493 240.63L157.859 235.67ZM162.12 234.477L164.74 238.736L164.74 238.736L162.12 234.477ZM160.927 224.659L157.416 228.219L157.428 228.231L157.44 228.243L160.927 224.659ZM145.381 224.489L148.425 228.455L148.432 228.45L145.381 224.489ZM141.325 229.5L140.214 234.375L144.353 235.318L145.955 231.386L141.325 229.5ZM131.745 227.318L127.036 225.636L125.141 230.942L130.635 232.193L131.745 227.318ZM136.722 219.614L140.059 223.338L140.061 223.336L136.722 219.614ZM144.325 215.318L145.803 220.095L145.82 220.089L145.837 220.084L144.325 215.318ZM160.006 214.705L158.962 219.594L158.989 219.6L159.017 219.606L160.006 214.705ZM166.62 217.364L163.945 221.588L163.955 221.594L163.966 221.601L166.62 217.364ZM171.7 222.92L167.313 225.321L167.318 225.329L167.323 225.338L171.7 222.92ZM173.677 267V272H178.677V267H173.677ZM163.722 267H158.722V272H163.722V267ZM163.722 259.841H168.722V254.841H163.722V259.841ZM163.313 259.841V254.841H160.223L158.841 257.605L163.313 259.841ZM160.347 263.727L156.874 260.13L156.874 260.13L160.347 263.727ZM155.268 266.898L153.384 262.266L155.268 266.898ZM157.279 258.307L154.868 253.927L154.857 253.933L154.847 253.938L157.279 258.307ZM161.881 253.943L157.57 251.41L157.565 251.419L157.56 251.427L161.881 253.943ZM163.484 241.364H168.484V229.293L159.948 237.828L163.484 241.364ZM161.37 242.386L162.758 247.19L162.792 247.18L162.826 247.17L161.37 242.386ZM157.859 243.17L158.625 248.111L158.667 248.105L158.708 248.098L157.859 243.17ZM154.006 243.75L154.638 248.71L154.682 248.704L154.726 248.698L154.006 243.75ZM150.87 244.159L151.497 249.12L151.518 249.117L151.54 249.114L150.87 244.159ZM145.45 245.42L143.751 240.718L143.741 240.721L143.73 240.725L145.45 245.42ZM141.563 247.977L137.805 244.679L137.8 244.685L141.563 247.977ZM142.927 258.068L140.073 262.174L140.09 262.186L140.107 262.197L142.927 258.068ZM147.836 268.159V263.159C145.146 263.159 142.868 262.665 140.917 261.772L138.836 266.318L136.755 270.865C140.167 272.426 143.89 273.159 147.836 273.159V268.159ZM138.836 266.318L140.948 261.786C139.063 260.908 137.664 259.696 136.627 258.133L132.461 260.898L128.295 263.662C130.394 266.827 133.245 269.229 136.724 270.85L138.836 266.318ZM132.461 260.898L136.646 258.161C135.737 256.772 135.143 254.875 135.143 252.205H130.143H125.143C125.143 256.397 126.094 260.297 128.276 263.634L132.461 260.898ZM130.143 252.205H135.143C135.143 249.862 135.596 248.387 136.144 247.467L131.847 244.909L127.551 242.352C125.826 245.249 125.143 248.638 125.143 252.205H130.143ZM131.847 244.909L136.144 247.467C136.84 246.296 137.754 245.394 138.947 244.707L136.45 240.375L133.952 236.043C131.282 237.583 129.127 239.704 127.551 242.352L131.847 244.909ZM136.45 240.375L138.947 244.707C140.421 243.857 142.122 243.184 144.085 242.716L142.927 237.852L141.769 232.988C138.959 233.657 136.342 234.666 133.952 236.043L136.45 240.375ZM142.927 237.852L144.085 242.716C146.282 242.193 148.524 241.795 150.814 241.522L150.222 236.557L149.63 231.592C146.966 231.91 144.345 232.375 141.769 232.988L142.927 237.852ZM150.222 236.557L150.798 241.524C153.935 241.16 156.481 240.864 158.436 240.637L157.859 235.67L157.281 230.704C155.327 230.931 152.783 231.226 149.646 231.59L150.222 236.557ZM157.859 235.67L158.493 240.63C160.634 240.356 162.923 239.854 164.74 238.736L162.12 234.477L159.5 230.219C159.579 230.17 159.474 230.249 159.042 230.37C158.628 230.486 158.035 230.607 157.224 230.711L157.859 235.67ZM162.12 234.477L164.74 238.736C167.392 237.104 168.45 234.417 168.45 231.818H163.45H158.45C158.45 231.837 158.447 231.564 158.645 231.167C158.862 230.734 159.191 230.409 159.5 230.219L162.12 234.477ZM163.45 231.818H168.45V231.58H163.45H158.45V231.818H163.45ZM163.45 231.58H168.45C168.45 227.635 167.307 223.89 164.414 221.075L160.927 224.659L157.44 228.243C157.911 228.701 158.45 229.569 158.45 231.58H163.45ZM160.927 224.659L164.438 221.099C161.514 218.215 157.555 217.205 153.495 217.205V222.205V227.205C156.025 227.205 157.022 227.83 157.416 228.219L160.927 224.659ZM153.495 222.205V217.205C149.367 217.205 145.458 218.119 142.331 220.527L145.381 224.489L148.432 228.45C149.259 227.813 150.759 227.205 153.495 227.205V222.205ZM145.381 224.489L142.337 220.522C139.846 222.434 137.85 224.775 136.694 227.614L141.325 229.5L145.955 231.386C146.299 230.543 147.008 229.543 148.425 228.455L145.381 224.489ZM141.325 229.5L142.435 224.625L132.855 222.443L131.745 227.318L130.635 232.193L140.214 234.375L141.325 229.5ZM131.745 227.318L136.454 229C137.353 226.481 138.587 224.656 140.059 223.338L136.722 219.614L133.386 215.889C130.494 218.48 128.41 221.791 127.036 225.636L131.745 227.318ZM136.722 219.614L140.061 223.336C141.722 221.846 143.619 220.77 145.803 220.095L144.325 215.318L142.846 210.542C139.302 211.639 136.132 213.427 133.384 215.891L136.722 219.614ZM144.325 215.318L145.837 220.084C148.187 219.338 150.686 218.955 153.359 218.955V213.955V208.955C149.713 208.955 146.189 209.48 142.812 210.553L144.325 215.318ZM153.359 213.955V218.955C155.052 218.955 156.916 219.157 158.962 219.594L160.006 214.705L161.051 209.815C158.415 209.252 155.847 208.955 153.359 208.955V213.955ZM160.006 214.705L159.017 219.606C160.779 219.962 162.413 220.618 163.945 221.588L166.62 217.364L169.295 213.14C166.736 211.519 163.961 210.402 160.996 209.803L160.006 214.705ZM166.62 217.364L163.966 221.601C165.222 222.388 166.353 223.566 167.313 225.321L171.7 222.92L176.086 220.52C174.409 217.456 172.155 214.93 169.274 213.126L166.62 217.364ZM171.7 222.92L167.323 225.338C168.101 226.747 168.677 228.934 168.677 232.227H173.677H178.677C178.677 227.884 177.934 223.867 176.076 220.503L171.7 222.92ZM173.677 232.227H168.677V267H173.677H178.677V232.227H173.677ZM173.677 267V262H163.722V267V272H173.677V267ZM163.722 267H168.722V259.841H163.722H158.722V267H163.722ZM163.722 259.841V254.841H163.313V259.841V264.841H163.722V259.841ZM163.313 259.841L158.841 257.605C158.489 258.31 157.88 259.159 156.874 260.13L160.347 263.727L163.82 267.324C165.451 265.75 166.82 264.008 167.785 262.077L163.313 259.841ZM160.347 263.727L156.874 260.13C156.103 260.875 154.987 261.614 153.384 262.266L155.268 266.898L157.151 271.53C159.685 270.499 161.955 269.125 163.82 267.324L160.347 263.727ZM155.268 266.898L153.384 262.266C152.061 262.804 150.257 263.159 147.836 263.159V268.159V273.159C151.188 273.159 154.338 272.673 157.151 271.53L155.268 266.898ZM150.052 259.977V264.977C153.527 264.977 156.814 264.288 159.712 262.675L157.279 258.307L154.847 253.938C153.744 254.552 152.213 254.977 150.052 254.977V259.977ZM157.279 258.307L159.691 262.687C162.416 261.186 164.651 259.122 166.202 256.459L161.881 253.943L157.56 251.427C157.02 252.355 156.188 253.2 154.868 253.927L157.279 258.307ZM161.881 253.943L166.192 256.476C167.702 253.906 168.484 251.091 168.484 248.114H163.484H158.484C158.484 249.273 158.197 250.344 157.57 251.41L161.881 253.943ZM163.484 248.114H168.484V241.364H163.484H158.484V248.114H163.484ZM163.484 241.364L159.948 237.828C160.049 237.727 160.14 237.648 160.214 237.59C160.288 237.531 160.349 237.488 160.394 237.458C160.48 237.401 160.524 237.382 160.505 237.391C160.487 237.4 160.432 237.425 160.328 237.464C160.225 237.503 160.089 237.55 159.914 237.603L161.37 242.386L162.826 247.17C163.961 246.824 165.718 246.2 167.019 244.899L163.484 241.364ZM161.37 242.386L159.982 237.583C159.175 237.816 158.189 238.04 157.009 238.243L157.859 243.17L158.708 248.098C160.164 247.847 161.52 247.548 162.758 247.19L161.37 242.386ZM157.859 243.17L157.092 238.23C155.789 238.432 154.52 238.623 153.287 238.802L154.006 243.75L154.726 248.698C155.993 248.514 157.292 248.318 158.625 248.111L157.859 243.17ZM154.006 243.75L153.375 238.79C152.118 238.95 151.059 239.088 150.2 239.204L150.87 244.159L151.54 249.114C152.363 249.003 153.395 248.868 154.638 248.71L154.006 243.75ZM150.87 244.159L150.243 239.199C147.952 239.488 145.78 239.985 143.751 240.718L145.45 245.42L147.148 250.123C148.392 249.674 149.834 249.33 151.497 249.12L150.87 244.159ZM145.45 245.42L143.73 240.725C141.457 241.558 139.417 242.843 137.805 244.679L141.563 247.977L145.321 251.275C145.664 250.885 146.215 250.465 147.169 250.116L145.45 245.42ZM141.563 247.977L137.8 244.685C135.861 246.901 135.131 249.63 135.131 252.341H140.131H145.131C145.131 251.865 145.194 251.585 145.24 251.445C145.281 251.32 145.316 251.282 145.326 251.27L141.563 247.977ZM140.131 252.341H135.131C135.131 256.288 136.699 259.828 140.073 262.174L142.927 258.068L145.781 253.963C145.427 253.717 145.131 253.439 145.131 252.341H140.131ZM142.927 258.068L140.107 262.197C143.006 264.177 146.439 264.977 150.052 264.977V259.977V254.977C147.892 254.977 146.575 254.505 145.747 253.939L142.927 258.068ZM190.134 286.636H185.134V291.636H190.134V286.636ZM190.134 214.636V209.636H185.134V214.636H190.134ZM200.088 214.636H205.088V209.636H200.088V214.636ZM200.088 223.125H195.088V228.125H200.088V223.125ZM200.94 223.125V228.125H203.918L205.337 225.506L200.94 223.125ZM203.497 219.341L207.444 222.411L207.444 222.411L203.497 219.341ZM208.134 215.591L210.51 219.99L210.53 219.979L210.549 219.969L208.134 215.591ZM227.293 217.159L224.586 221.363L224.586 221.363L227.293 217.159ZM235.099 226.398L230.572 228.521L230.577 228.531L230.582 228.541L235.099 226.398ZM235.134 255.477L239.661 257.6L239.665 257.59L235.134 255.477ZM227.361 264.784L230.101 268.966L230.111 268.96L230.121 268.953L227.361 264.784ZM208.27 266.42L205.914 270.831L205.925 270.836L205.935 270.842L208.27 266.42ZM203.565 262.67L207.482 259.562L207.482 259.562L203.565 262.67ZM200.94 258.852L205.32 256.439L203.894 253.852H200.94V258.852ZM200.327 258.852V253.852H195.327V258.852H200.327ZM200.327 286.636V291.636H205.327V286.636H200.327ZM201.724 250.5L197.059 252.297L197.059 252.297L201.724 250.5ZM206.361 257.011L203.297 260.963L203.311 260.974L203.325 260.984L206.361 257.011ZM221.429 256.909L224.526 260.835L224.539 260.824L224.552 260.813L221.429 256.909ZM226.065 250.261L221.395 248.477L221.388 248.493L221.382 248.51L226.065 250.261ZM226.099 231.511L221.413 233.254L221.419 233.271L221.426 233.288L226.099 231.511ZM221.463 225L218.393 228.947L218.404 228.955L218.415 228.963L221.463 225ZM206.293 224.898L203.307 220.887L203.296 220.895L203.285 220.903L206.293 224.898ZM201.69 231.273L206.359 233.062L206.359 233.062L201.69 231.273ZM190.134 286.636H195.134V214.636H190.134H185.134V286.636H190.134ZM190.134 214.636V219.636H200.088V214.636V209.636H190.134V214.636ZM200.088 214.636H195.088V223.125H200.088H205.088V214.636H200.088ZM200.088 223.125V228.125H200.94V223.125V218.125H200.088V223.125ZM200.94 223.125L205.337 225.506C205.752 224.739 206.429 223.715 207.444 222.411L203.497 219.341L199.55 216.271C198.338 217.83 197.31 219.329 196.544 220.744L200.94 223.125ZM203.497 219.341L207.444 222.411C208.043 221.64 209.001 220.805 210.51 219.99L208.134 215.591L205.757 211.192C203.311 212.513 201.178 214.178 199.55 216.271L203.497 219.341ZM208.134 215.591L210.549 219.969C211.532 219.426 213.222 218.955 215.974 218.955V213.955V208.955C212.227 208.955 208.689 209.574 205.718 211.213L208.134 215.591ZM215.974 213.955V218.955C219.313 218.955 222.133 219.784 224.586 221.363L227.293 217.159L229.999 212.955C225.816 210.262 221.09 208.955 215.974 208.955V213.955ZM227.293 217.159L224.586 221.363C227.017 222.929 229.034 225.239 230.572 228.521L235.099 226.398L239.626 224.275C237.393 219.511 234.204 215.662 229.999 212.955L227.293 217.159ZM235.099 226.398L230.582 228.541C232.099 231.738 232.963 235.808 232.963 240.92H237.963H242.963C242.963 234.714 241.918 229.103 239.617 224.254L235.099 226.398ZM237.963 240.92H232.963C232.963 246.039 232.109 250.133 230.602 253.364L235.134 255.477L239.665 257.59C241.931 252.731 242.963 247.12 242.963 240.92H237.963ZM235.134 255.477L230.607 253.354C229.06 256.652 227.038 259.001 224.601 260.615L227.361 264.784L230.121 268.953C234.274 266.204 237.434 262.348 239.661 257.6L235.134 255.477ZM227.361 264.784L224.621 260.602C222.2 262.188 219.405 263.023 216.077 263.023V268.023V273.023C221.203 273.023 225.931 271.698 230.101 268.966L227.361 264.784ZM216.077 268.023V263.023C213.408 263.023 211.682 262.568 210.605 261.999L208.27 266.42L205.935 270.842C208.903 272.409 212.382 273.023 216.077 273.023V268.023ZM208.27 266.42L210.625 262.01C209.088 261.189 208.103 260.345 207.482 259.562L203.565 262.67L199.649 265.779C201.3 267.859 203.451 269.515 205.914 270.831L208.27 266.42ZM203.565 262.67L207.482 259.562C206.451 258.263 205.754 257.228 205.32 256.439L200.94 258.852L196.561 261.265C197.354 262.703 198.407 264.214 199.649 265.779L203.565 262.67ZM200.94 258.852V253.852H200.327V258.852V263.852H200.94V258.852ZM200.327 258.852H195.327V286.636H200.327H205.327V258.852H200.327ZM200.327 286.636V281.636H190.134V286.636V291.636H200.327V286.636ZM200.122 240.818H195.122C195.122 244.973 195.724 248.832 197.059 252.297L201.724 250.5L206.39 248.703C205.589 246.622 205.122 244.027 205.122 240.818H200.122ZM201.724 250.5L197.059 252.297C198.401 255.782 200.445 258.751 203.297 260.963L206.361 257.011L209.424 253.06C208.231 252.135 207.184 250.764 206.39 248.703L201.724 250.5ZM206.361 257.011L203.325 260.984C206.348 263.294 209.937 264.33 213.793 264.33V259.33V254.33C211.784 254.33 210.419 253.819 209.396 253.038L206.361 257.011ZM213.793 259.33V264.33C217.764 264.33 221.454 263.258 224.526 260.835L221.429 256.909L218.332 252.984C217.313 253.788 215.912 254.33 213.793 254.33V259.33ZM221.429 256.909L224.552 260.813C227.396 258.538 229.432 255.533 230.749 252.013L226.065 250.261L221.382 248.51C220.608 250.58 219.552 252.007 218.306 253.005L221.429 256.909ZM226.065 250.261L230.736 252.046C232.055 248.593 232.668 244.827 232.668 240.818H227.668H222.668C222.668 243.81 222.212 246.339 221.395 248.477L226.065 250.261ZM227.668 240.818H232.668C232.668 236.86 232.068 233.142 230.773 229.735L226.099 231.511L221.426 233.288C222.221 235.381 222.668 237.867 222.668 240.818H227.668ZM226.099 231.511L230.786 229.768C229.478 226.252 227.413 223.269 224.512 221.037L221.463 225L218.415 228.963C219.65 229.913 220.675 231.271 221.413 233.254L226.099 231.511ZM221.463 225L224.533 221.053C221.456 218.66 217.76 217.614 213.793 217.614V222.614V227.614C215.961 227.614 217.38 228.158 218.393 228.947L221.463 225ZM213.793 222.614V217.614C209.94 217.614 206.347 218.624 203.307 220.887L206.293 224.898L209.278 228.908C210.329 228.126 211.737 227.614 213.793 227.614V222.614ZM206.293 224.898L203.285 220.903C200.403 223.073 198.35 226.017 197.022 229.483L201.69 231.273L206.359 233.062C207.121 231.074 208.136 229.768 209.3 228.892L206.293 224.898ZM201.69 231.273L197.022 229.483C195.711 232.902 195.122 236.714 195.122 240.818H200.122H205.122C205.122 237.649 205.579 235.098 206.359 233.062L201.69 231.273ZM252.264 286.636H247.264V291.636H252.264V286.636ZM252.264 214.636V209.636H247.264V214.636H252.264ZM262.218 214.636H267.218V209.636H262.218V214.636ZM262.218 223.125H257.218V228.125H262.218V223.125ZM263.07 223.125V228.125H266.048L267.467 225.506L263.07 223.125ZM265.627 219.341L269.574 222.411L269.574 222.411L265.627 219.341ZM270.264 215.591L272.64 219.99L272.66 219.979L272.679 219.969L270.264 215.591ZM289.423 217.159L286.716 221.363L286.716 221.363L289.423 217.159ZM297.229 226.398L292.702 228.521L292.707 228.531L292.712 228.541L297.229 226.398ZM297.264 255.477L301.791 257.6L301.795 257.59L297.264 255.477ZM289.491 264.784L292.231 268.966L292.241 268.96L292.251 268.953L289.491 264.784ZM270.4 266.42L268.044 270.831L268.055 270.836L268.065 270.842L270.4 266.42ZM265.695 262.67L269.612 259.562L269.612 259.562L265.695 262.67ZM263.07 258.852L267.45 256.439L266.024 253.852H263.07V258.852ZM262.457 258.852V253.852H257.457V258.852H262.457ZM262.457 286.636V291.636H267.457V286.636H262.457ZM263.854 250.5L259.189 252.297L259.189 252.297L263.854 250.5ZM268.491 257.011L265.427 260.963L265.441 260.974L265.455 260.984L268.491 257.011ZM283.559 256.909L286.656 260.835L286.669 260.824L286.682 260.813L283.559 256.909ZM288.195 250.261L283.525 248.477L283.518 248.493L283.512 248.51L288.195 250.261ZM288.229 231.511L283.543 233.254L283.549 233.271L283.556 233.288L288.229 231.511ZM283.593 225L280.523 228.947L280.534 228.955L280.545 228.963L283.593 225ZM268.423 224.898L265.437 220.887L265.426 220.895L265.415 220.903L268.423 224.898ZM263.82 231.273L268.489 233.062L268.489 233.062L263.82 231.273ZM252.264 286.636H257.264V214.636H252.264H247.264V286.636H252.264ZM252.264 214.636V219.636H262.218V214.636V209.636H252.264V214.636ZM262.218 214.636H257.218V223.125H262.218H267.218V214.636H262.218ZM262.218 223.125V228.125H263.07V223.125V218.125H262.218V223.125ZM263.07 223.125L267.467 225.506C267.882 224.739 268.559 223.715 269.574 222.411L265.627 219.341L261.68 216.271C260.468 217.83 259.44 219.329 258.674 220.744L263.07 223.125ZM265.627 219.341L269.574 222.411C270.173 221.64 271.131 220.805 272.64 219.99L270.264 215.591L267.887 211.192C265.441 212.513 263.308 214.178 261.68 216.271L265.627 219.341ZM270.264 215.591L272.679 219.969C273.662 219.426 275.352 218.955 278.104 218.955V213.955V208.955C274.357 208.955 270.819 209.574 267.848 211.213L270.264 215.591ZM278.104 213.955V218.955C281.443 218.955 284.263 219.784 286.716 221.363L289.423 217.159L292.129 212.955C287.946 210.262 283.22 208.955 278.104 208.955V213.955ZM289.423 217.159L286.716 221.363C289.147 222.929 291.164 225.239 292.702 228.521L297.229 226.398L301.756 224.275C299.523 219.511 296.334 215.662 292.129 212.955L289.423 217.159ZM297.229 226.398L292.712 228.541C294.229 231.738 295.093 235.808 295.093 240.92H300.093H305.093C305.093 234.714 304.048 229.103 301.747 224.254L297.229 226.398ZM300.093 240.92H295.093C295.093 246.039 294.239 250.133 292.732 253.364L297.264 255.477L301.795 257.59C304.061 252.731 305.093 247.12 305.093 240.92H300.093ZM297.264 255.477L292.737 253.354C291.19 256.652 289.168 259.001 286.731 260.615L289.491 264.784L292.251 268.953C296.404 266.204 299.564 262.348 301.791 257.6L297.264 255.477ZM289.491 264.784L286.751 260.602C284.33 262.188 281.535 263.023 278.207 263.023V268.023V273.023C283.333 273.023 288.061 271.698 292.231 268.966L289.491 264.784ZM278.207 268.023V263.023C275.538 263.023 273.812 262.568 272.735 261.999L270.4 266.42L268.065 270.842C271.033 272.409 274.512 273.023 278.207 273.023V268.023ZM270.4 266.42L272.755 262.01C271.218 261.189 270.233 260.345 269.612 259.562L265.695 262.67L261.779 265.779C263.43 267.859 265.581 269.515 268.044 270.831L270.4 266.42ZM265.695 262.67L269.612 259.562C268.581 258.263 267.884 257.228 267.45 256.439L263.07 258.852L258.691 261.265C259.484 262.703 260.537 264.214 261.779 265.779L265.695 262.67ZM263.07 258.852V253.852H262.457V258.852V263.852H263.07V258.852ZM262.457 258.852H257.457V286.636H262.457H267.457V258.852H262.457ZM262.457 286.636V281.636H252.264V286.636V291.636H262.457V286.636ZM262.252 240.818H257.252C257.252 244.973 257.854 248.832 259.189 252.297L263.854 250.5L268.52 248.703C267.719 246.622 267.252 244.027 267.252 240.818H262.252ZM263.854 250.5L259.189 252.297C260.531 255.782 262.575 258.751 265.427 260.963L268.491 257.011L271.554 253.06C270.361 252.135 269.314 250.764 268.52 248.703L263.854 250.5ZM268.491 257.011L265.455 260.984C268.478 263.294 272.067 264.33 275.923 264.33V259.33V254.33C273.914 254.33 272.549 253.819 271.526 253.038L268.491 257.011ZM275.923 259.33V264.33C279.894 264.33 283.584 263.258 286.656 260.835L283.559 256.909L280.462 252.984C279.443 253.788 278.042 254.33 275.923 254.33V259.33ZM283.559 256.909L286.682 260.813C289.526 258.538 291.562 255.533 292.879 252.013L288.195 250.261L283.512 248.51C282.738 250.58 281.682 252.007 280.436 253.005L283.559 256.909ZM288.195 250.261L292.866 252.046C294.185 248.593 294.798 244.827 294.798 240.818H289.798H284.798C284.798 243.81 284.342 246.339 283.525 248.477L288.195 250.261ZM289.798 240.818H294.798C294.798 236.86 294.198 233.142 292.903 229.735L288.229 231.511L283.556 233.288C284.351 235.381 284.798 237.867 284.798 240.818H289.798ZM288.229 231.511L292.916 229.768C291.608 226.252 289.543 223.269 286.642 221.037L283.593 225L280.545 228.963C281.78 229.913 282.805 231.271 283.543 233.254L288.229 231.511ZM283.593 225L286.663 221.053C283.586 218.66 279.89 217.614 275.923 217.614V222.614V227.614C278.091 227.614 279.51 228.158 280.523 228.947L283.593 225ZM275.923 222.614V217.614C272.07 217.614 268.477 218.624 265.437 220.887L268.423 224.898L271.408 228.908C272.459 228.126 273.867 227.614 275.923 227.614V222.614ZM268.423 224.898L265.415 220.903C262.533 223.073 260.48 226.017 259.152 229.483L263.82 231.273L268.489 233.062C269.251 231.074 270.266 229.768 271.43 228.892L268.423 224.898ZM263.82 231.273L259.152 229.483C257.841 232.902 257.252 236.714 257.252 240.818H262.252H267.252C267.252 237.649 267.709 235.098 268.489 233.062L263.82 231.273ZM323.632 264.75L321.056 269.035L321.071 269.044L321.087 269.054L323.632 264.75ZM315.041 255.375L310.559 257.591L310.567 257.606L310.574 257.621L315.041 255.375ZM315.041 226.977L310.559 224.761L310.554 224.771L310.549 224.781L315.041 226.977ZM323.496 217.398L320.827 213.17L320.821 213.173L320.815 213.177L323.496 217.398ZM344.837 215.42L346.499 210.705L346.499 210.705L344.837 215.42ZM352.303 220.023L348.862 223.651L348.862 223.651L352.303 220.023ZM357.519 228.17L352.846 229.95L352.85 229.961L357.519 228.17ZM359.428 243.886V248.886H364.428V243.886H359.428ZM317.803 243.886H312.803V248.886H317.803V243.886ZM317.803 236.25V231.25H312.803V236.25H317.803ZM349.439 236.25V241.25H354.439V236.25H349.439ZM347.803 229.125L343.37 231.438L343.375 231.448L343.38 231.458L347.803 229.125ZM343.2 224.182L340.577 228.438L340.588 228.445L340.599 228.452L343.2 224.182ZM328.814 224.489L331.556 228.67L331.567 228.662L328.814 224.489ZM323.905 229.943L319.46 227.653L319.456 227.662L319.451 227.671L323.905 229.943ZM324.041 252.102L319.569 254.338L319.577 254.355L319.586 254.371L324.041 252.102ZM329.257 257.727L326.743 262.049L326.76 262.059L326.776 262.068L329.257 257.727ZM342.348 258.818L343.97 263.548L344 263.538L344.03 263.527L342.348 258.818ZM346.473 256.295L343.009 252.69L343.009 252.69L346.473 256.295ZM349.132 252.17L350.019 247.25L345.915 246.51L344.451 250.415L349.132 252.17ZM358.78 253.909L363.605 255.221L365.037 249.956L359.667 248.988L358.78 253.909ZM354.621 261.375L350.971 257.958L350.969 257.959L354.621 261.375ZM347.155 266.318L348.969 270.978L348.978 270.974L348.988 270.97L347.155 266.318ZM336.962 268.057V263.057C332.526 263.057 328.998 262.115 326.178 260.446L323.632 264.75L321.087 269.054C325.721 271.794 331.079 273.057 336.962 273.057V268.057ZM323.632 264.75L326.209 260.465C323.349 258.746 321.125 256.344 319.508 253.129L315.041 255.375L310.574 257.621C313.003 262.452 316.506 266.3 321.056 269.035L323.632 264.75ZM315.041 255.375L319.523 253.159C317.927 249.929 317.041 245.977 317.041 241.159H312.041H307.041C307.041 247.205 308.156 252.73 310.559 257.591L315.041 255.375ZM312.041 241.159H317.041C317.041 236.422 317.922 232.469 319.533 229.173L315.041 226.977L310.549 224.781C308.161 229.667 307.041 235.169 307.041 241.159H312.041ZM315.041 226.977L319.523 229.193C321.168 225.866 323.387 223.39 326.177 221.618L323.496 217.398L320.815 213.177C316.377 215.996 312.96 219.906 310.559 224.761L315.041 226.977ZM323.496 217.398L326.165 221.626C328.901 219.898 332.2 218.955 336.246 218.955V213.955V208.955C330.565 208.955 325.363 210.306 320.827 213.17L323.496 217.398ZM336.246 213.955V218.955C338.637 218.955 340.939 219.348 343.175 220.136L344.837 215.42L346.499 210.705C343.189 209.538 339.764 208.955 336.246 208.955V213.955ZM344.837 215.42L343.175 220.136C345.262 220.872 347.15 222.027 348.862 223.651L352.303 220.023L355.743 216.395C353.047 213.837 349.957 211.924 346.499 210.705L344.837 215.42ZM352.303 220.023L348.862 223.651C350.435 225.142 351.793 227.187 352.846 229.95L357.519 228.17L362.191 226.39C360.698 222.472 358.58 219.085 355.743 216.395L352.303 220.023ZM357.519 228.17L352.85 229.961C353.844 232.551 354.428 235.941 354.428 240.273H359.428H364.428C364.428 235.104 363.739 230.426 362.187 226.38L357.519 228.17ZM359.428 240.273H354.428V243.886H359.428H364.428V240.273H359.428ZM359.428 243.886V238.886H317.803V243.886V248.886H359.428V243.886ZM317.803 243.886H322.803V236.25H317.803H312.803V243.886H317.803ZM317.803 236.25V241.25H349.439V236.25V231.25H317.803V236.25ZM349.439 236.25H354.439C354.439 232.876 353.748 229.679 352.225 226.792L347.803 229.125L343.38 231.458C344.039 232.707 344.439 234.261 344.439 236.25H349.439ZM347.803 229.125L352.236 226.812C350.732 223.93 348.571 221.599 345.802 219.912L343.2 224.182L340.599 228.452C341.784 229.174 342.692 230.138 343.37 231.438L347.803 229.125ZM343.2 224.182L345.824 219.925C342.969 218.166 339.737 217.375 336.314 217.375V222.375V227.375C338.164 227.375 339.523 227.789 340.577 228.438L343.2 224.182ZM336.314 222.375V217.375C332.592 217.375 329.11 218.304 326.061 220.315L328.814 224.489L331.567 228.662C332.791 227.855 334.309 227.375 336.314 227.375V222.375ZM328.814 224.489L326.072 220.308C323.236 222.168 321.014 224.638 319.46 227.653L323.905 229.943L328.35 232.233C329.114 230.749 330.165 229.582 331.556 228.67L328.814 224.489ZM323.905 229.943L319.451 227.671C317.939 230.634 317.2 233.838 317.2 237.205H322.2H327.2C327.2 235.344 327.598 233.707 328.359 232.216L323.905 229.943ZM322.2 237.205H317.2V243.17H322.2H327.2V237.205H322.2ZM322.2 243.17H317.2C317.2 247.239 317.913 251.025 319.569 254.338L324.041 252.102L328.513 249.866C327.715 248.27 327.2 246.102 327.2 243.17H322.2ZM324.041 252.102L319.586 254.371C321.241 257.621 323.627 260.237 326.743 262.049L329.257 257.727L331.771 253.405C330.433 252.627 329.342 251.493 328.497 249.833L324.041 252.102ZM329.257 257.727L326.776 262.068C329.873 263.838 333.358 264.636 337.064 264.636V259.636V254.636C334.816 254.636 333.096 254.162 331.738 253.386L329.257 257.727ZM337.064 259.636V264.636C339.467 264.636 341.786 264.297 343.97 263.548L342.348 258.818L340.726 254.088C339.729 254.431 338.525 254.636 337.064 254.636V259.636ZM342.348 258.818L344.03 263.527C346.251 262.733 348.243 261.529 349.937 259.901L346.473 256.295L343.009 252.69C342.385 253.289 341.627 253.767 340.666 254.109L342.348 258.818ZM346.473 256.295L349.937 259.901C351.681 258.225 352.961 256.2 353.814 253.926L349.132 252.17L344.451 250.415C344.076 251.413 343.583 252.138 343.009 252.69L346.473 256.295ZM349.132 252.17L348.245 257.091L357.893 258.83L358.78 253.909L359.667 248.988L350.019 247.25L349.132 252.17ZM358.78 253.909L353.955 252.597C353.395 254.656 352.41 256.421 350.971 257.958L354.621 261.375L358.271 264.792C360.832 262.057 362.619 258.844 363.605 255.221L358.78 253.909ZM354.621 261.375L350.969 257.959C349.554 259.472 347.711 260.725 345.322 261.666L347.155 266.318L348.988 270.97C352.599 269.548 355.733 267.505 358.272 264.791L354.621 261.375ZM347.155 266.318L345.341 261.659C343.043 262.554 340.278 263.057 336.962 263.057V268.057V273.057C341.282 273.057 345.313 272.401 348.969 270.978L347.155 266.318ZM373.617 267H368.617V272H373.617V267ZM373.617 214.636V209.636H368.617V214.636H373.617ZM383.47 214.636H388.47V209.636H383.47V214.636ZM383.47 222.955H378.47V227.955H383.47V222.955ZM384.015 222.955V227.955H387.6L388.751 224.559L384.015 222.955ZM389.06 216.307L391.843 220.461L391.852 220.455L389.06 216.307ZM399.56 213.92L399.298 218.914L399.304 218.914L399.56 213.92ZM401.64 214.091H406.64V209.726L402.316 209.137L401.64 214.091ZM401.64 223.841L400.302 228.658L406.64 230.419V223.841H401.64ZM399.458 223.466L398.706 228.409L398.759 228.417L398.812 228.424L399.458 223.466ZM389.879 224.761L392.243 229.167L392.252 229.162L392.262 229.157L389.879 224.761ZM385.447 228.955L389.705 231.575L389.713 231.563L389.72 231.551L385.447 228.955ZM383.81 267V272H388.81V267H383.81ZM373.617 267H378.617V214.636H373.617H368.617V267H373.617ZM373.617 214.636V219.636H383.47V214.636V209.636H373.617V214.636ZM383.47 214.636H378.47V222.955H383.47H388.47V214.636H383.47ZM383.47 222.955V227.955H384.015V222.955V217.955H383.47V222.955ZM384.015 222.955L388.751 224.559C389.362 222.753 390.373 221.446 391.843 220.461L389.06 216.307L386.278 212.153C382.93 214.395 380.577 217.52 379.279 221.351L384.015 222.955ZM389.06 216.307L391.852 220.455C393.419 219.401 395.188 218.852 397.31 218.852V213.852V208.852C393.297 208.852 389.566 209.94 386.269 212.159L389.06 216.307ZM397.31 213.852V218.852C397.835 218.852 398.493 218.871 399.298 218.914L399.56 213.92L399.823 208.927C398.901 208.879 398.059 208.852 397.31 208.852V213.852ZM399.56 213.92L399.304 218.914C400.138 218.957 400.67 219.005 400.964 219.045L401.64 214.091L402.316 209.137C401.61 209.041 400.755 208.975 399.817 208.927L399.56 213.92ZM401.64 214.091H396.64V223.841H401.64H406.64V214.091H401.64ZM401.64 223.841L402.978 219.023C402.19 218.804 401.142 218.643 400.105 218.508L399.458 223.466L398.812 228.424C399.293 228.487 399.665 228.542 399.941 228.59C400.24 228.641 400.335 228.668 400.302 228.658L401.64 223.841ZM399.458 223.466L400.21 218.523C398.919 218.326 397.622 218.227 396.322 218.227V223.227V228.227C397.113 228.227 397.907 228.287 398.706 228.409L399.458 223.466ZM396.322 223.227V218.227C393.184 218.227 390.2 218.9 387.496 220.366L389.879 224.761L392.262 229.157C393.33 228.578 394.641 228.227 396.322 228.227V223.227ZM389.879 224.761L387.515 220.356C384.87 221.775 382.731 223.795 381.174 226.358L385.447 228.955L389.72 231.551C390.344 230.523 391.16 229.748 392.243 229.167L389.879 224.761ZM385.447 228.955L381.189 226.334C379.569 228.967 378.81 231.913 378.81 235.023H383.81H388.81C388.81 233.587 389.143 232.488 389.705 231.575L385.447 228.955ZM383.81 235.023H378.81V267H383.81H388.81V235.023H383.81ZM383.81 267V262H373.617V267V272H383.81V267Z" fill="url(#paint4_linear_0_1)" mask="url(#path-3-outside-2_0_1)"/>
<defs>
<linearGradient id="paint0_linear_0_1" x1="204.5" y1="-59" x2="204.5" y2="304" gradientUnits="userSpaceOnUse">
<stop offset="0.182692" stop-color="white"/>
<stop offset="0.822115"/>
</linearGradient>
<linearGradient id="paint1_linear_0_1" x1="204.5" y1="-59" x2="204.5" y2="304" gradientUnits="userSpaceOnUse">
<stop offset="0.144231"/>
<stop offset="1" stop-color="#FF276C"/>
</linearGradient>
<linearGradient id="paint2_linear_0_1" x1="204" y1="174" x2="204" y2="290" gradientUnits="userSpaceOnUse">
<stop stop-color="#FFF6D0"/>
<stop offset="1" stop-color="#FF8800"/>
</linearGradient>
<linearGradient id="paint3_linear_0_1" x1="204" y1="174" x2="204" y2="290" gradientUnits="userSpaceOnUse">
<stop stop-color="white"/>
<stop offset="1"/>
</linearGradient>
<linearGradient id="paint4_linear_0_1" x1="204" y1="174" x2="204" y2="290" gradientUnits="userSpaceOnUse">
<stop stop-color="#FFCC5D"/>
<stop offset="0.721154" stop-color="#9A001A"/>
</linearGradient>
</defs>
</svg>
